<?xml version="1.0" encoding="utf-8"?><!-- Uploaded to: SVG Repo, www.svgrepo.com, Generator: SVG Repo Mixer Tools -->
<svg width="800px" height="800px" viewBox="0 0 24 24" fill="none" xmlns="http://www.w3.org/2000/svg">
<path fill-rule="evenodd" clip-rule="evenodd" d="M5.66493 2.74199C5.99503 1.70455 6.95855 1 8.04724 1H13.1756C14.9704 1 16.1805 2.83513 15.4735 4.4848L13.967 8H18.2405C20.4882 8 21.5942 10.7352 19.978 12.2975L9.43055 22.4934C8.25327 23.6314 6.36431 22.329 7.0093 20.824L9.93388 14H5.50179C3.80978 14 2.60645 12.3544 3.11948 10.742L5.66493 2.74199ZM8.04724 3C7.82951 3 7.6368 3.14091 7.57078 3.3484L5.02533 11.3484C4.92272 11.6709 5.16339 12 5.50179 12H11.1471C12.0086 12 12.5894 12.8809 12.2501 13.6727L9.82561 19.3298L18.588 10.8595C18.9112 10.547 18.69 10 18.2405 10H12.7537C11.8922 10 11.3114 9.11914 11.6508 8.3273L13.6352 3.69696C13.7766 3.36703 13.5346 3 13.1756 3H8.04724Z" fill="#0F0F0F"/>
</svg>